<?xml version="1.0" encoding="UTF-8" standalone="no"?>
<!DOCTYPE svg PUBLIC "-//W3C//DTD SVG 1.1//EN" "http://www.w3.org/Graphics/SVG/1.1/DTD/svg11.dtd">
<!-- Created with Vectornator (http://vectornator.io/) -->
<svg height="100%" stroke-miterlimit="10" style="fill-rule:nonzero;clip-rule:evenodd;stroke-linecap:round;stroke-linejoin:round;" version="1.1" viewBox="0 0 200 200" width="100%" xml:space="preserve" xmlns="http://www.w3.org/2000/svg" xmlns:xlink="http://www.w3.org/1999/xlink">
<defs/>
<g id="Layer-1">
<path d="M100.028 184.988C53.4178 184.988 15.6393 147.209 15.6393 100.598C15.5823 53.9307 53.3609 16.1521 100.028 16.1521C146.639 16.1521 184.418 53.9307 184.418 100.541C184.418 147.152 146.639 184.988 100.028 184.988ZM99.9715 7.88982C48.9733 7.88982 7.49095 49.2012 7.49095 99.9715C7.49095 150.799 48.9733 192.11 99.9715 192.11C150.97 192.11 192.509 150.799 192.509 100.028C192.509 49.2012 151.027 7.88982 99.9715 7.88982Z" fill="#00a1df" fill-rule="nonzero" opacity="1" stroke="none"/>
<path d="M76.5522 139.061C62.5918 132.508 52.905 117.693 52.905 100.541C52.905 91.4813 55.5831 83.1051 60.1986 76.2673L90.6266 121.624L109.032 121.624L139.46 76.2673C144.075 83.1051 146.753 91.5383 146.753 100.541C146.753 116.553 138.32 130.456 125.898 137.636L131.767 160.087C154.104 148.577 169.318 125.328 169.318 98.49C169.318 73.1333 155.699 51.0246 135.414 38.9446L100.085 93.4756L65.099 38.7167C44.5857 50.7397 30.7963 73.0194 30.7963 98.49C30.7963 126.297 47.1499 150.286 70.7971 161.283L76.5522 139.061Z" fill="#00a1df" fill-rule="nonzero" opacity="1" stroke="none"/>
</g>
</svg>
